<?xml version="1.0" encoding="UTF-8" standalone="no"?>
<!-- Created with Inkscape (http://www.inkscape.org/) -->

<svg
   xmlns:dc="http://purl.org/dc/elements/1.1/"
   xmlns:cc="http://creativecommons.org/ns#"
   xmlns:rdf="http://www.w3.org/1999/02/22-rdf-syntax-ns#"
   xmlns:svg="http://www.w3.org/2000/svg"
   xmlns="http://www.w3.org/2000/svg"
   xmlns:sodipodi="http://sodipodi.sourceforge.net/DTD/sodipodi-0.dtd"
   xmlns:inkscape="http://www.inkscape.org/namespaces/inkscape"
   version="1.1"
   id="svg2"
   xml:space="preserve"
   width="257.33334"
   height="257.33334"
   viewBox="0 0 257.33334 257.33334"
   sodipodi:docname="ufp.svg"
   inkscape:version="0.92.1 r15371"><metadata
     id="metadata8"><rdf:RDF><cc:Work
         rdf:about=""><dc:format>image/svg+xml</dc:format><dc:type
           rdf:resource="http://purl.org/dc/dcmitype/StillImage" /></cc:Work></rdf:RDF></metadata><defs
     id="defs6" /><sodipodi:namedview
     pagecolor="#ffffff"
     bordercolor="#666666"
     borderopacity="1"
     objecttolerance="10"
     gridtolerance="10"
     guidetolerance="10"
     inkscape:pageopacity="0"
     inkscape:pageshadow="2"
     inkscape:window-width="1600"
     inkscape:window-height="803"
     id="namedview4"
     showgrid="false"
     inkscape:zoom="0.91709841"
     inkscape:cx="-4.3615821"
     inkscape:cy="124.30509"
     inkscape:window-x="0"
     inkscape:window-y="27"
     inkscape:window-maximized="1"
     inkscape:current-layer="g10" /><g
     id="g10"
     inkscape:groupmode="layer"
     inkscape:label="ink_ext_XXXXXX"
     transform="matrix(1.3333333,0,0,-1.3333333,0,257.33333)"><g
       id="g12"
       transform="scale(0.1)"><path
         d="M 0,1927.56 H 1927.56 V 0 H 0 v 1927.56"
         style="fill:none;fill-opacity:1;fill-rule:evenodd;stroke:none"
         id="path14"
         inkscape:connector-curvature="0" /><path
         d="m 964.008,1504.23 c 235.732,0 427.612,-192.33 427.612,-428.07 0,-235.726 -191.88,-428.058 -427.612,-428.058 -235.731,0 -428.063,192.332 -428.063,428.058 0,235.74 192.332,428.07 428.063,428.07"
         style="fill:#ffffff;fill-opacity:1;fill-rule:evenodd;stroke:none"
         id="path18"
         inkscape:connector-curvature="0" /><path
         d="m 964.008,1475.45 c 219.742,0 399.282,-179.54 399.282,-399.29 0,-219.738 -179.54,-399.277 -399.282,-399.277 -220.199,0 -399.281,179.082 -399.281,399.277 0,219.75 179.082,399.29 399.281,399.29"
         style="fill:#231f20;fill-opacity:1;fill-rule:evenodd;stroke:none"
         id="path20"
         inkscape:connector-curvature="0" /><path
         d="m 964.008,1467.22 c 215.172,0 391.062,-175.42 391.062,-391.06 0,-215.625 -175.89,-391.055 -391.062,-391.055 -215.629,0 -391.516,175.43 -391.516,391.055 0,215.64 175.887,391.06 391.516,391.06"
         style="fill:#ffffff;fill-opacity:1;fill-rule:evenodd;stroke:none"
         id="path22"
         inkscape:connector-curvature="0" /><path
         d="m 964.008,1459 c 210.602,0 382.832,-171.77 382.832,-382.84 0,-211.058 -172.23,-382.832 -382.832,-382.832 -211.063,0 -383.289,171.774 -383.289,382.832 0,211.07 172.226,382.84 383.289,382.84"
         style="fill:#2646a2;fill-opacity:1;fill-rule:evenodd;stroke:none"
         id="path24"
         inkscape:connector-curvature="0" /><path
         d="m 826.043,1411.95 c 7.309,0 13.703,-5.94 13.703,-13.71 0,-7.31 -6.394,-13.25 -13.703,-13.25 -7.77,0 -13.707,5.94 -13.707,13.25 0,7.77 5.937,13.71 13.707,13.71 z m 58.473,-125.18 c 7.312,0 13.707,-5.94 13.707,-13.7 0,-7.32 -6.395,-13.71 -13.707,-13.71 -7.766,0 -13.703,6.39 -13.703,13.71 0,7.76 5.937,13.7 13.703,13.7 z m -121.52,6.85 c 7.309,0 13.707,-5.94 13.707,-13.7 0,-7.31 -6.398,-13.71 -13.707,-13.71 -7.766,0 -13.707,6.4 -13.707,13.71 0,7.76 5.941,13.7 13.707,13.7 z m 62.59,-14.16 c 5.48,0 10.047,-5.03 10.047,-10.51 0,-5.48 -4.567,-10.05 -10.047,-10.05 -5.941,0 -10.508,4.57 -10.508,10.05 0,5.48 4.567,10.51 10.508,10.51 z m 112.383,53.91 c 5.48,0 10.051,-5.03 10.051,-10.51 0,-5.48 -4.571,-10.05 -10.051,-10.05 -5.942,0 -10.508,4.57 -10.508,10.05 0,5.48 4.566,10.51 10.508,10.51 z m 74.921,74.01 c 5.94,0 10.51,-4.58 10.51,-10.05 0,-5.49 -4.57,-10.05 -10.51,-10.05 -5.48,0 -10.05,4.56 -10.05,10.05 0,5.47 4.57,10.05 10.05,10.05 z m 69.9,13.7 c 5.94,0 10.5,-4.57 10.5,-10.05 0,-5.48 -4.56,-10.51 -10.5,-10.51 -5.49,0 -10.05,4.57 -10.05,10.51 0,5.48 4.56,10.05 10.05,10.05 z m 102.79,-68.98 c 5.48,0 10.05,-4.57 10.05,-10.05 0,-5.94 -4.57,-10.51 -10.05,-10.51 -5.94,0 -10.51,4.57 -10.51,10.51 0,5.48 4.57,10.05 10.51,10.05 z m -26.95,-50.26 c 5.93,0 10.5,-4.56 10.5,-10.04 0,-5.49 -4.57,-10.05 -10.5,-10.05 -5.49,0 -10.06,4.56 -10.06,10.05 0,5.48 4.57,10.04 10.06,10.04 z m 60.76,-21.01 c 5.93,0 10.5,-4.57 10.5,-10.51 0,-5.48 -4.57,-10.05 -10.5,-10.05 -5.49,0 -10.06,4.57 -10.06,10.05 0,5.94 4.57,10.51 10.06,10.51 z m -16.45,-47.05 c 5.48,0 10.05,-4.57 10.05,-10.51 0,-5.48 -4.57,-10.05 -10.05,-10.05 -5.94,0 -10.51,4.57 -10.51,10.05 0,5.94 4.57,10.51 10.51,10.51 z m -17.82,30.15 c 7.31,0 13.7,-5.94 13.7,-13.71 0,-7.31 -6.39,-13.7 -13.7,-13.7 -7.77,0 -13.71,6.39 -13.71,13.7 0,7.77 5.94,13.71 13.71,13.71 z m 97.76,-37.92 c 7.77,0 13.71,-5.94 13.71,-13.71 0,-7.31 -5.94,-13.7 -13.71,-13.7 -7.3,0 -13.7,6.39 -13.7,13.7 0,7.77 6.4,13.71 13.7,13.71 z m 4.57,-88.17 c 7.32,0 13.71,-5.94 13.71,-13.25 0,-7.77 -6.39,-13.71 -13.71,-13.71 -7.31,0 -13.7,5.94 -13.7,13.71 0,7.31 6.39,13.25 13.7,13.25 z m -45.68,26.04 c 7.77,0 13.71,-5.94 13.71,-13.7 0,-7.32 -5.94,-13.71 -13.71,-13.71 -7.31,0 -13.7,6.39 -13.7,13.71 0,7.76 6.39,13.7 13.7,13.7 z m -115.13,-13.7 c 7.31,0 13.71,-5.95 13.71,-13.71 0,-7.31 -6.4,-13.71 -13.71,-13.71 -7.76,0 -13.7,6.4 -13.7,13.71 0,7.76 5.94,13.71 13.7,13.71 z m -167.199,-16.45 c 7.766,0 13.704,-6.4 13.704,-13.71 0,-7.77 -5.938,-13.7 -13.704,-13.7 -7.312,0 -13.707,5.93 -13.707,13.7 0,7.31 6.395,13.71 13.707,13.71 z m 0.911,-48.89 c 7.312,0 13.707,-5.93 13.707,-13.7 0,-7.31 -6.395,-13.71 -13.707,-13.71 -7.766,0 -13.704,6.4 -13.704,13.71 0,7.77 5.938,13.7 13.704,13.7 z m 140.708,135.23 c 5.48,0 10.05,-4.57 10.05,-10.51 0,-5.48 -4.57,-10.05 -10.05,-10.05 -5.48,0 -10.05,4.57 -10.05,10.05 0,5.94 4.57,10.51 10.05,10.51 z m 43.4,-3.66 c 5.49,0 10.05,-4.56 10.05,-10.5 0,-5.48 -4.56,-10.05 -10.05,-10.05 -5.94,0 -10.51,4.57 -10.51,10.05 0,5.94 4.57,10.5 10.51,10.5 z m 36.55,-21.46 c 5.48,0 10.05,-4.57 10.05,-10.06 0,-5.94 -4.57,-10.5 -10.05,-10.5 -5.94,0 -10.51,4.56 -10.51,10.5 0,5.49 4.57,10.06 10.51,10.06 z m 30.15,10.5 c 5.48,0 10.05,-4.57 10.05,-10.05 0,-5.48 -4.57,-10.51 -10.05,-10.51 -5.48,0 -10.05,5.03 -10.05,10.51 0,5.48 4.57,10.05 10.05,10.05 z m 45.68,-18.27 c 5.49,0 10.06,-4.57 10.06,-10.05 0,-5.49 -4.57,-10.05 -10.06,-10.05 -5.93,0 -10.5,4.56 -10.5,10.05 0,5.48 4.57,10.05 10.5,10.05 z m -73.55,-49.8 c 5.49,0 10.05,-4.57 10.05,-10.5 0,-5.49 -4.56,-10.06 -10.05,-10.06 -5.94,0 -10.5,4.57 -10.5,10.06 0,5.93 4.56,10.5 10.5,10.5 z m -26.95,8.23 c 5.94,0 10.51,-4.57 10.51,-10.06 0,-5.94 -4.57,-10.5 -10.51,-10.5 -5.48,0 -10.05,4.56 -10.05,10.5 0,5.49 4.57,10.06 10.05,10.06 z m -40.66,30.6 c 5.48,0 10.05,-5.02 10.05,-10.5 0,-5.49 -4.57,-10.05 -10.05,-10.05 -5.94,0 -10.51,4.56 -10.51,10.05 0,5.48 4.57,10.5 10.51,10.5 z m -37.92,-7.76 c 5.49,0 10.05,-4.57 10.05,-10.51 0,-5.48 -4.56,-10.05 -10.05,-10.05 -5.94,0 -10.51,4.57 -10.51,10.05 0,5.94 4.57,10.51 10.51,10.51 z m -116.49,7.76 c 5.937,0 10.503,-5.02 10.503,-10.5 0,-5.49 -4.566,-10.05 -10.503,-10.05 -5.485,0 -10.055,4.56 -10.055,10.05 0,5.48 4.57,10.5 10.055,10.5 z m 60.76,-79.94 c 5.94,0 10.51,-4.57 10.51,-10.06 0,-5.94 -4.57,-10.5 -10.51,-10.5 -5.48,0 -10.05,4.56 -10.05,10.5 0,5.49 4.57,10.06 10.05,10.06 z m 93.65,10.5 c 5.48,0 10.05,-4.57 10.05,-10.05 0,-5.94 -4.57,-10.51 -10.05,-10.51 -5.94,0 -10.51,4.57 -10.51,10.51 0,5.48 4.57,10.05 10.51,10.05 z m 17.36,-32.43 c 5.48,0 10.05,-4.57 10.05,-10.51 0,-5.48 -4.57,-10.05 -10.05,-10.05 -5.48,0 -10.5,4.57 -10.5,10.05 0,5.94 5.02,10.51 10.5,10.51 z m 124.26,-16.91 c 5.94,0 10.51,-4.56 10.51,-10.05 0,-5.48 -4.57,-10.5 -10.51,-10.5 -5.48,0 -10.05,5.02 -10.05,10.5 0,5.49 4.57,10.05 10.05,10.05 z m -217,20.56 c 5.48,0 10.51,-4.57 10.51,-10.05 0,-5.94 -5.03,-10.51 -10.51,-10.51 -5.48,0 -10.05,4.57 -10.05,10.51 0,5.48 4.57,10.05 10.05,10.05 z m 49.34,16.9 c 8.68,0 15.53,-7.3 15.53,-15.53 0,-8.68 -6.85,-15.53 -15.53,-15.53 -8.68,0 -15.53,6.85 -15.53,15.53 0,8.23 6.85,15.53 15.53,15.53 z m 185.94,-120.148 c 8.68,0 15.53,-6.847 15.53,-15.527 0,-8.68 -6.85,-15.535 -15.53,-15.535 -8.23,0 -15.54,6.855 -15.54,15.535 0,8.68 7.31,15.527 15.54,15.527 z M 958.984,939.113 c 8.68,0 15.532,-6.855 15.532,-15.535 0,-8.68 -6.852,-15.535 -15.532,-15.535 -8.222,0 -15.535,6.855 -15.535,15.535 0,8.68 7.313,15.535 15.535,15.535 z m 27.411,90.907 c 8.679,0 15.535,-6.85 15.535,-15.53 0,-8.22 -6.856,-15.533 -15.535,-15.533 -8.68,0 -15.536,7.313 -15.536,15.533 0,8.68 6.856,15.53 15.536,15.53 z m 108.275,13.25 c 5.02,0 9.13,-4.11 9.13,-9.13 0,-5.03 -4.11,-9.14 -9.13,-9.14 -5.03,0 -9.14,4.11 -9.14,9.14 0,5.02 4.11,9.13 9.14,9.13 z m -55.28,-23.75 c 5.02,0 9.13,-4.12 9.13,-9.14 0,-5.03 -4.11,-9.14 -9.13,-9.14 -5.03,0 -9.14,4.11 -9.14,9.14 0,5.02 4.11,9.14 9.14,9.14 z m -30.61,-48.43 c 5.02,0 9.13,-4.11 9.13,-9.137 0,-5.023 -4.11,-9.137 -9.13,-9.137 -5.03,0 -9.139,4.114 -9.139,9.137 0,5.027 4.109,9.137 9.139,9.137 z m 24.21,-75.379 c 5.03,0 9.14,-4.109 9.14,-9.137 0,-5.023 -4.11,-9.136 -9.14,-9.136 -5.02,0 -9.13,4.113 -9.13,9.136 0,5.028 4.11,9.137 9.13,9.137 z m -72.638,108.729 c 5.027,0 9.14,-4.11 9.14,-9.135 0,-5.028 -4.113,-9.137 -9.14,-9.137 -5.024,0 -9.137,4.109 -9.137,9.137 0,5.025 4.113,9.135 9.137,9.135 z m 5.937,44.77 c 5.027,0 9.141,-4.11 9.141,-9.14 0,-5.02 -4.114,-9.13 -9.141,-9.13 -5.019,0 -9.133,4.11 -9.133,9.13 0,5.03 4.114,9.14 9.133,9.14 z m -56.187,-4.57 c 5.023,0 9.132,-4.11 9.132,-9.14 0,-5.02 -4.109,-9.13 -9.132,-9.13 -5.028,0 -9.137,4.11 -9.137,9.13 0,5.03 4.109,9.14 9.137,9.14 z m -45.684,-43.85 c 5.023,0 9.137,-4.118 9.137,-9.142 0,-5.023 -4.114,-9.136 -9.137,-9.136 -5.027,0 -9.141,4.113 -9.141,9.136 0,5.024 4.114,9.142 9.141,9.142 z m 59.387,-35.638 c 5.027,0 9.136,-4.109 9.136,-9.136 0,-5.028 -4.109,-9.141 -9.136,-9.141 -5.024,0 -9.137,4.113 -9.137,9.141 0,5.027 4.113,9.136 9.137,9.136 z m 2.742,49.798 c 5.48,0 10.051,-4.57 10.051,-10.06 0,-5.933 -4.571,-10.499 -10.051,-10.499 -5.484,0 -10.508,4.566 -10.508,10.499 0,5.49 5.024,10.06 10.508,10.06 z m -58.934,105.53 c 5.028,0 9.137,-4.11 9.137,-9.14 0,-5.02 -4.109,-9.14 -9.137,-9.14 -5.023,0 -9.136,4.12 -9.136,9.14 0,5.03 4.113,9.14 9.136,9.14 z m 306.547,-96.4 c 5.48,0 10.05,-4.56 10.05,-10.04 0,-5.95 -4.57,-10.51 -10.05,-10.51 -5.94,0 -10.51,4.56 -10.51,10.51 0,5.48 4.57,10.04 10.51,10.04 z m 47.51,-150.299 c 5.94,0 10.51,-4.566 10.51,-10.051 0,-5.937 -4.57,-10.503 -10.51,-10.503 -5.49,0 -10.05,4.566 -10.05,10.503 0,5.485 4.56,10.051 10.05,10.051 z m -219.74,35.637 c 6.85,0 12.33,-5.484 12.33,-11.879 0,-6.855 -5.48,-12.336 -12.33,-12.336 -6.399,0 -11.883,5.481 -11.883,12.336 0,6.395 5.484,11.879 11.883,11.879 z m 11.42,-27.867 c 5.02,0 9.13,-4.113 9.13,-9.137 0,-5.027 -4.11,-9.141 -9.13,-9.141 -5.03,0 -9.14,4.114 -9.14,9.141 0,5.024 4.11,9.137 9.14,9.137 z m -139.342,25.125 c 10.508,0 18.734,-8.68 18.734,-18.731 0,-10.507 -8.226,-18.73 -18.734,-18.73 -10.047,0 -18.731,8.223 -18.731,18.73 0,10.051 8.684,18.731 18.731,18.731 z m -16.903,23.297 c 5.028,0 9.137,-4.11 9.137,-9.137 0,-5.023 -4.109,-9.133 -9.137,-9.133 -5.023,0 -9.136,4.11 -9.136,9.133 0,5.027 4.113,9.137 9.136,9.137 z m -32.89,41.117 c 5.023,0 9.137,-4.11 9.137,-9.137 0,-5.023 -4.114,-9.137 -9.137,-9.137 -5.027,0 -9.137,4.114 -9.137,9.137 0,5.027 4.11,9.137 9.137,9.137 z m -29.695,1.371 c 5.484,0 9.136,-4.113 9.136,-9.137 0,-5.023 -3.652,-9.136 -9.136,-9.136 -5.024,0 -8.684,4.113 -8.684,9.136 0,5.024 3.66,9.137 8.684,9.137 z m 16.902,-53.906 c 5.023,0 9.137,-4.114 9.137,-9.137 0,-5.027 -4.114,-9.137 -9.137,-9.137 -5.024,0 -9.137,4.11 -9.137,9.137 0,5.023 4.113,9.137 9.137,9.137 z m -26.496,13.703 c 7.308,0 13.703,-5.938 13.703,-13.703 0,-7.309 -6.395,-13.707 -13.703,-13.707 -7.77,0 -13.707,6.398 -13.707,13.707 0,7.765 5.937,13.703 13.707,13.703 z M 772.133,899.82 c 5.023,0 9.137,-4.109 9.137,-9.136 0,-5.024 -4.114,-9.133 -9.137,-9.133 -5.024,0 -9.137,4.109 -9.137,9.133 0,5.027 4.113,9.136 9.137,9.136 z m -37.918,30.153 c 9.137,0 16.449,-7.309 16.449,-16.446 0,-9.593 -7.312,-16.902 -16.449,-16.902 -9.594,0 -16.902,7.309 -16.902,16.902 0,9.137 7.308,16.446 16.902,16.446 z m 40.66,125.177 c 5.023,0 9.137,-4.11 9.137,-9.14 0,-5.02 -4.114,-9.13 -9.137,-9.13 -5.023,0 -9.137,4.11 -9.137,9.13 0,5.03 4.114,9.14 9.137,9.14 z m -29.695,-49.34 c 5.027,0 9.136,-4.11 9.136,-9.138 0,-5.024 -4.109,-9.137 -9.136,-9.137 -4.571,0 -8.68,4.113 -8.68,9.137 0,5.028 4.109,9.138 8.68,9.138 z m -31.063,80.4 c 5.02,0 9.133,-3.65 9.133,-9.13 0,-5.03 -4.113,-8.68 -9.133,-8.68 -5.027,0 -9.14,3.65 -9.14,8.68 0,5.48 4.113,9.13 9.14,9.13 z M 1037.56,843.629 c 6.85,0 12.33,-5.481 12.33,-12.332 0,-6.856 -5.48,-12.336 -12.33,-12.336 -6.4,0.457 -11.88,5.48 -11.88,12.336 0,6.851 5.48,12.332 11.88,12.332 z m -61.216,-6.395 c 5.023,0 9.136,-4.113 9.136,-9.136 0,-5.024 -4.113,-9.137 -9.136,-9.137 -5.028,0.457 -9.137,4.113 -9.137,9.137 0,5.023 4.109,9.136 9.137,9.136 z m 18.73,-18.73 c 5.026,0 9.136,-4.109 9.136,-9.137 0,-5.023 -4.11,-9.137 -9.136,-9.137 -5.027,0 -9.14,4.114 -9.14,9.137 0,5.028 4.113,9.137 9.14,9.137 z m 16.906,-77.664 c 5.02,0 9.13,-4.11 9.13,-9.137 0,-5.023 -4.11,-9.137 -9.13,-9.137 -5.03,0 -9.14,4.114 -9.14,9.137 0,5.027 4.11,9.137 9.14,9.137 z M 810.508,841.805 c 5.027,0 9.137,-4.114 9.137,-9.141 0,-5.019 -4.11,-9.133 -9.137,-9.133 -5.028,0 -9.137,4.114 -9.137,9.133 0,5.027 4.109,9.141 9.137,9.141 z m 22.844,-13.707 c 6.851,0 12.332,-5.481 12.332,-11.879 0,-6.852 -5.481,-12.332 -12.332,-12.332 -6.399,0 -11.879,5.48 -11.879,12.332 0,6.398 5.48,11.879 11.879,11.879 z m -8.223,40.203 c 6.851,0 12.332,-5.028 12.332,-11.879 0,-6.852 -5.481,-12.336 -12.332,-12.336 -6.856,0 -12.336,5.484 -12.336,12.336 0,6.851 5.48,11.879 12.336,11.879 z m -81.32,-16.446 c 5.027,0 9.136,-4.113 9.136,-9.136 0,-5.028 -4.109,-9.137 -9.136,-9.137 -5.028,0 -9.137,4.109 -9.137,9.137 0,5.023 4.109,9.136 9.137,9.136 z m 12.793,-52.996 c 5.023,0 9.136,-4.109 9.136,-9.136 0,-5.024 -4.113,-9.137 -9.136,-9.137 -5.028,0 -9.137,4.113 -9.137,9.137 0,5.027 4.109,9.136 9.137,9.136 z m -39.289,52.996 c 5.027,0 9.136,-4.113 9.136,-9.136 0,-5.028 -4.109,-9.137 -9.136,-9.137 -5.028,0 -9.137,4.109 -9.137,9.137 0,5.023 4.109,9.136 9.137,9.136 z m -63.047,56.188 c 5.027,0 9.136,-4.109 9.136,-9.133 0,-5.027 -4.109,-9.137 -9.136,-9.137 -5.024,0 -9.133,4.11 -9.133,9.137 0,5.024 4.109,9.133 9.133,9.133 z m -12.789,85.891 c 7.308,0 13.703,-6.399 13.703,-13.707 0,-7.766 -6.395,-13.707 -13.703,-13.707 -7.766,0 -13.707,5.941 -13.707,13.707 0,7.308 5.941,13.707 13.707,13.707 z m -8.227,38.376 c 7.313,0 13.25,-5.94 13.25,-13.25 0,-7.77 -5.937,-13.71 -13.25,-13.71 -7.762,0 -13.703,5.94 -13.703,13.71 0,7.31 5.941,13.25 13.703,13.25 z m 26.957,102.79 c 7.766,0 13.703,-6.4 13.703,-13.71 0,-7.76 -5.937,-13.7 -13.703,-13.7 -7.309,0 -13.707,5.94 -13.707,13.7 0,7.31 6.398,13.71 13.707,13.71 z m -25.582,48.42 c 5.023,0 9.133,-4.11 9.133,-9.13 0,-5.03 -4.11,-9.14 -9.133,-9.14 -5.027,0 -9.137,4.11 -9.137,9.14 0,5.02 4.11,9.13 9.137,9.13 z m 208.32,-20.56 c 16.903,-94.1 0.457,-80.4 95.477,-95.02 -97.762,-15.99 -80.402,-1.83 -95.02,-95.479 -13.707,91.369 -1.371,81.319 -95.937,95.479 92.281,14.62 79.031,1.37 95.48,95.02 z m 194.615,104.17 c 14.62,-80.86 0.46,-68.99 82.23,-81.78 -84.06,-13.71 -68.98,-1.37 -81.77,-81.78 -11.88,78.13 -0.92,69.45 -82.692,81.78 79.492,12.79 68.072,1.37 82.232,81.78 z m 41.57,-208.33 c 13.25,-75.831 0,-64.409 76.75,-76.745 -78.58,-12.332 -64.41,-1.371 -76.75,-76.75 -10.5,73.55 -0.91,65.328 -77.2,76.75 74.46,11.879 63.5,1.371 77.2,76.745"
         style="fill:#ffffff;fill-opacity:1;fill-rule:evenodd;stroke:none"
         id="path26"
         inkscape:connector-curvature="0" /><path
         d="m 1099.23,536.176 c 9.6,7.308 20.11,16.445 29.7,23.754 -21.47,1.371 -67.61,-2.285 -85.89,10.508 12.34,27.41 180,28.324 208.32,36.546 -31.97,18.735 -29.69,10.508 -21.93,44.774 -79.48,-39.746 -175.42,-22.844 -227.05,-87.715 31.07,-28.781 58.02,-26.496 96.85,-27.867 z m 304.72,129.742 c -36.55,-4.109 -72.18,-3.199 -100.5,1.371 -3.66,31.066 -4.12,62.586 -4.12,72.184 -20.56,-29.696 -51.62,-69.442 -44.77,-109.645 56.65,-9.137 107.36,-5.484 149.39,36.09 z m -73.09,27.41 c 54.36,-5.48 127,5.938 148.47,54.824 -38.83,-10.054 -68.07,-13.25 -109.64,-12.793 -9.14,22.844 -15.54,46.141 -21.02,68.985 -16.9,-32.895 -17.81,-74.469 -17.81,-111.016 z m 233.44,206.953 c -30.6,-29.238 -88.17,-75.379 -134.31,-75.379 -11.88,15.532 -23.3,43.856 -32.44,68.981 -10.05,-41.113 -10.05,-79.488 -2.28,-121.52 81.32,-14.621 149.84,52.078 169.03,127.918 z m 19.65,142.539 c -17.82,-31.07 -78.12,-111.019 -121.07,-121.527 -12.79,0.918 -33.35,47.055 -38.83,58.02 1.83,-33.348 2.74,-85.43 23.75,-113.297 84.98,0.914 140.72,92.742 136.15,176.804 z m -15.08,105.98 c -21.01,-41.11 -49.34,-99.13 -89.08,-126.54 -15.54,5.02 -33.81,28.32 -44.32,41.11 0.92,-36.09 20.1,-71.722 41.57,-97.761 66.7,14.161 101.42,109.181 91.83,183.191 z m -84.51,-79.94 c 51.16,48.88 61.21,111.92 42.94,176.79 -13.71,-37 -22.85,-79.03 -46.6,-110.55 -18.73,5.48 -35.63,15.53 -52.99,23.3 5.02,-34.27 29.23,-67.16 56.65,-89.54 z m -17.82,265.88 c -0.46,0 0.91,-85.89 -7.31,-108.28 -25.13,1.38 -32.89,3.66 -55.28,13.71 7.76,-28.78 54.37,-72.18 71.27,-74.46 26.04,55.27 20.55,116.95 -8.68,169.03 z m -23.76,-73.55 c 3.2,54.36 -10.51,110.1 -46.14,144.82 3.66,-25.59 8.22,-49.8 6.4,-76.3 -15.08,1.38 -34.27,5.49 -49.34,12.34 5.48,-20.1 63.5,-78.58 89.08,-80.86 z m -61.67,101.87 c -5.03,31.07 -33.35,86.8 -61.22,99.6 -0.91,-10.51 4.11,-19.65 5.03,-28.78 -22.85,13.24 -51.17,41.57 -83.61,47.51 19.65,-37.92 49.34,-72.64 82.23,-99.14 25.59,-14.16 30.16,-17.36 57.57,-19.19 z M 828.781,536.176 c -9.593,7.308 -20.558,16.445 -29.695,23.754 21.016,1.371 67.156,-2.285 85.43,10.508 -12.332,27.41 -179.996,28.324 -207.864,36.546 31.524,18.735 29.239,10.508 21.473,44.774 79.949,-39.746 175.43,-22.844 227.051,-87.715 -30.606,-28.781 -58.02,-26.496 -96.395,-27.867 z M 524.066,665.918 c 36.547,-4.109 71.727,-3.199 100.051,1.371 3.653,31.066 4.11,62.586 4.567,72.184 20.101,-29.696 51.621,-69.442 44.773,-109.645 -56.648,-9.137 -107.359,-5.484 -149.391,36.09 z m 73.094,27.41 c -54.82,-5.48 -127.457,5.938 -148.93,54.824 38.833,-10.054 68.528,-13.25 109.641,-12.793 9.141,22.844 15.535,46.141 21.473,68.985 16.449,-32.895 17.816,-74.469 17.816,-111.016 z M 363.258,900.281 c 30.609,-29.238 88.172,-75.379 134.312,-75.379 11.879,15.532 23.297,43.856 32.434,68.981 10.055,-41.113 10.055,-79.488 2.285,-121.52 -80.859,-14.621 -149.844,52.078 -169.031,127.918 z m -19.645,142.539 c 17.817,-31.07 78.121,-111.019 121.067,-121.527 13.246,0.918 33.804,47.055 38.828,58.02 -1.828,-33.348 -2.738,-85.43 -23.754,-113.297 -84.973,0.914 -140.711,92.742 -136.141,176.804 z m 15.535,105.98 c 20.555,-41.11 48.879,-99.13 88.625,-126.54 15.532,5.02 33.809,28.32 44.317,41.11 -0.918,-36.09 -20.106,-71.722 -41.574,-97.761 -66.7,14.161 -101.422,109.181 -91.368,183.191 z m 84.512,-79.94 c -51.621,48.88 -61.672,111.92 -43.398,176.79 13.703,-37 22.843,-79.03 47.054,-110.55 18.274,5.48 35.633,15.53 52.536,23.3 -5.024,-34.27 -29.235,-67.16 -56.192,-89.54 z m 17.82,265.88 c 0,0 -1.371,-85.89 6.852,-108.28 25.125,1.38 33.348,3.66 55.277,13.71 -7.765,-28.78 -54.363,-72.18 -70.812,-74.46 -26.496,55.27 -21.012,116.95 8.683,169.03 z m 23.297,-73.55 c -3.195,54.36 10.508,110.1 46.145,144.82 -3.203,-25.59 -8.223,-49.8 -6.399,-76.3 15.536,1.38 34.723,5.49 49.34,12.34 -5.484,-20.1 -63.504,-78.58 -89.086,-80.86 z m 62.129,101.87 c 4.571,31.07 32.895,86.8 60.762,99.6 0.918,-10.51 -3.652,-19.65 -5.023,-28.78 22.843,13.24 51.168,41.57 83.601,47.51 -19.187,-37.92 -49.34,-72.64 -82.23,-99.14 -25.582,-14.16 -30.153,-17.36 -57.11,-19.19"
         style="fill:#ffffff;fill-opacity:1;fill-rule:evenodd;stroke:none"
         id="path28"
         inkscape:connector-curvature="0" /></g></g></svg>